<?xml version="1.0" encoding="utf-8"?>
<!-- Generator: Adobe Illustrator 19.2.0, SVG Export Plug-In . SVG Version: 6.00 Build 0)  -->
<svg version="1.1" id="Layer_1" xmlns="http://www.w3.org/2000/svg" xmlns:xlink="http://www.w3.org/1999/xlink" x="0px" y="0px"
	 viewBox="0 0 265.7 265.7" style="enable-background:new 0 0 265.7 265.7;" xml:space="preserve">
<style type="text/css">
	.st0{fill:#73BE44;}
	.st1{fill:#5E9F44;}
	.st2{fill:#FDCF9D;}
	.st3{fill:#F38480;}
	.st4{fill:#221F1F;}
	.st5{fill:#ED8981;}
</style>
<g>
	<path class="st0" d="M85.1,70c-15.3,13.5-29.3,28.9-40.7,45.8l-0.1,0.1h-0.1l-0.3,0.2c-6,3-11.3,6-15.9,8.6
		c-6.2,3.6-11.1,6.7-14.5,9l-0.6,0.4v-0.7c0.7-12.8,3.4-25.2,7.8-37C25.2,84.3,31.4,73,39.1,62.8c9.6-12.7,21.4-23.7,34.8-32.2
		c13-8.1,27.5-13.9,43-16.7c5.4-1,10.8-1.5,16.1-1.7c5.4-0.2,10.8,0,16,0.6c3.7,0.4,7.4,1,10.9,1.8c3.6,0.8,7.2,1.8,10.6,2.9
		l1.2,0.5l-1,0.4c-5.3,1.9-10.6,4.1-16,6.5s-10.8,5.1-16.2,8C120.3,42.7,101.9,55.2,85.1,70z"/>
	<path class="st1" d="M94.2,70.3c14.9-12.5,31-23.3,46.9-31.8c19.1-10.3,38-17.5,54.4-20.9c16.2-3.4,30-3.1,39.3,1.4
		c15.9,7.6,18.9,21.9,17.2,35.5c-1.7,13.6-8.1,26.6-10.9,31.8l-0.1,0.3l-0.3-0.1c-16.4-3.4-32.4-5.1-47.8-5.5
		c-17.1-0.4-33.4,0.7-48.8,3c-17.2,2.5-33.2,6.4-47.8,10.9c-14.6,4.6-27.8,9.8-39.2,15l-1.2,0.6l0.8-1.1
		C67.6,94.9,80.4,81.8,94.2,70.3z"/>
	<path class="st2" d="M96.8,101.2c14.5-4.6,30.5-8.5,47.7-11c14.4-2.1,29.7-3.2,45.6-3c15.9,0.3,32.5,2,49.5,5.5h0.2v0.2
		c0.3,1.3,0.6,2.6,0.9,4c0.3,1.3,0.5,2.7,0.8,4c0.3,1.7,0.5,3.3,0.8,5.1c0.2,1.7,0.5,3.5,0.7,5.3c0.7,5.8,1.2,11.4,1.4,16.8
		c0.2,5.6,0.1,11-0.2,16.2c-0.3,5-0.9,9.8-1.6,14.5c-0.8,4.8-1.8,9.4-3,13.8l-0.1,0.2l-0.2,0.1l-1.2,13.3l-1.9,0.5l-0.6,1.8l0,0
		l-14.9,26.7l-9.6,7.6v0.1L211,223c-5.1,5.1-10.6,9.7-16.5,13.6c-6,4-12.3,7.3-19,10c-9.1,3.7-18.8,6.3-28.5,7.5
		c-8.9,1.1-17.9,0.8-26.3-1c-1.1-0.2-2.3-0.5-3.4-0.8c-1.1-0.3-2.2-0.6-3.4-0.9h-0.1h-0.1c-7.6-2-16-2.5-21.6-5
		c-5.9-2.6-9.4-3.9-14.3-7.9h-0.1c-12.3-7.4-16.9-15.9-17-16l0,0l0,0l0,0l-1-1l-1.5,0.2l0,0c-3.7,0.6-7.4,0.2-11-0.8
		c-3.9-1.2-7.7-3.2-11.2-5.7c-2.5-1.8-4.8-3.9-6.9-6.2c-2.1-2.3-4.1-4.9-5.7-7.5s-2.9-5.4-3.9-8.1c-0.9-2.7-1.5-5.4-1.7-8
		c-0.2-2.5,0-4.9,0.6-7.2c0.6-2.2,1.5-4.2,2.9-6c13.1-16.9,32.6-1.8,33.2-1.4l0,0l0,0l0,0L69,182c-6.5-10.6-11.2-18.7-14.2-27.5
		c-3.2-9.3-4.7-19.4-4.7-34.1V120l0.2-0.1C63.1,113.6,78.8,106.9,96.8,101.2L96.8,101.2z M101,190.4c3.8,5.3,8.9,10.8,15,15.5
		c7.3,5.6,16.1,10.2,26.3,12.6c8.7,2,18.4,2.2,29,0c0.8-0.2,1.5-0.3,2.3-0.5s1.5-0.4,2.3-0.6c49.5-13.8,54.9-68,55-68.7l0,0l0,0l0,0
		l0.6-5.6l-5.1,2.7l0,0C185.7,167.5,97,168.5,96.1,168.5l0,0l0,0l0,0l-3.9,0.1l0.5,3.8c0,0.2,0.1,0.4,0.1,0.6c0,0.2,0.1,0.4,0.1,0.6
		C93.7,178.1,96.5,184.1,101,190.4L101,190.4z M132.4,132.8c0.9-1.7,1.4-3.7,1.6-5.7c0.2-2-0.1-3.9-0.6-5.6
		c-0.6-1.8-1.6-3.4-2.8-4.8l0,0c-1.2-1.4-2.8-2.5-4.5-3.2s-3.5-1.1-5.6-1.1c-4.1,0-7.9,1.7-10.8,4.3c-1.5,1.4-2.7,3-3.6,4.8
		c-0.9,1.7-1.4,3.6-1.6,5.6c-0.2,2,0.1,3.9,0.6,5.6c0.6,1.8,1.6,3.4,2.8,4.8l0,0c1.2,1.4,2.8,2.5,4.5,3.2s3.6,1.1,5.6,1.1
		s3.9-0.4,5.7-1.1c1.9-0.7,3.6-1.8,5.1-3.2l0,0C130.3,136.2,131.5,134.6,132.4,132.8L132.4,132.8z M192.2,122.6
		c0.6,1.8,1.6,3.4,2.8,4.8c1.2,1.4,2.8,2.5,4.5,3.2s3.6,1.1,5.6,1.1s3.9-0.4,5.7-1.1c1.9-0.7,3.6-1.8,5.1-3.2s2.7-3,3.6-4.8
		c0.9-1.7,1.4-3.6,1.6-5.6s-0.1-3.9-0.6-5.7c-0.6-1.8-1.6-3.4-2.8-4.8l0,0c-1.2-1.4-2.8-2.5-4.5-3.2s-3.5-1.1-5.6-1.1
		c-2,0-3.9,0.4-5.7,1.1c-1.9,0.7-3.6,1.8-5.1,3.2l0,0c-1.5,1.4-2.7,3-3.6,4.8c-0.9,1.7-1.4,3.7-1.6,5.7
		C191.4,118.9,191.6,120.8,192.2,122.6z"/>
	<path class="st3" d="M144.2,212.2c-9.3-2.1-17.3-6.4-24-11.5c-4.9-3.7-9-7.9-12.2-12c-3.8-4.8-6.4-9.5-7.9-13.4l-0.2-0.5h0.5
		c9.2-0.3,30.4-1.2,54-4.1c23.6-2.9,49.6-7.9,68.5-16.4l0.6-0.3l-0.1,0.6c-1.4,6.9-4.8,18.5-12.2,29.7
		c-7.4,11.2-18.9,21.9-36.6,26.8c-0.7,0.2-1.4,0.4-2.1,0.5c-0.7,0.2-1.4,0.3-2.1,0.5C160.9,214.3,152.1,214,144.2,212.2z"/>
	<path class="st4" d="M56.5,233.3c-3.9,0-10-0.2-13.7-1.4c-5-1.6-9.8-4.1-14.1-7.3c-3-2.2-5.9-4.8-8.5-7.7c-2.6-2.9-5-6-7-9.2
		c-2-3.3-3.7-6.9-5-10.5c-1.2-3.6-2-7.2-2.3-10.7c-0.1-1.6-0.1-3.3,0-5c0.1-1.2,0.2-2.3,0.4-3.5c-0.5-1.7-0.9-3.2-1.3-4.7
		c-0.5-2-1-4-1.4-6c-0.4-2.1-0.8-4.3-1.1-6.6c-0.3-2.1-0.6-4.4-0.8-6.9c-1.7-17.5,0.1-34.7,4.9-51C11.5,85.9,19.5,70,29.9,56.1
		c10.5-14,23.5-26,38.3-35.3c14.3-9,30.3-15.4,47.5-18.4c5.9-1.1,11.9-1.7,17.8-1.9c6-0.2,11.9,0,17.6,0.7
		c5.6,0.6,11.2,1.7,16.6,3.1c4.9,1.3,9.6,2.9,14.3,4.7c11.5-3.3,22.4-5.1,32.1-5.4c10.2-0.3,19.2,1.2,26.4,4.6
		c22.1,10.6,25.9,29.8,23.4,47.7c-2.1,15.1-8.8,29.1-12,35.1c0.2,1,0.4,1.9,0.6,2.7c0.3,1.7,0.7,3.2,0.9,4.7
		c0.3,1.8,0.6,3.6,0.9,5.5c0.2,1.4,0.4,3.2,0.7,5.4c0.8,6.1,1.3,12.1,1.5,17.9c0.2,6,0.1,11.8-0.2,17.4
		c-2.4,37.3-18.4,71.2-43.4,93.6C175.3,271.7,118,279.4,56.5,233.3L56.5,233.3z M33.6,181.7c0,0,3-0.9,7.7-1.1
		c-0.6,11,14.7,13.9,14.7,13.9c-9-3.6-8.7-10.3-8-13.5c4.5,0.6,9.5,2.1,14.5,5.2C62.5,186.2,46.5,168.8,33.6,181.7L33.6,181.7z
		 M207.6,101.8c-4.2,0-8.1,1.7-11.1,4.4s-5,6.5-5.3,10.7c-0.4,4.2,1,8,3.5,10.7s6.1,4.4,10.3,4.4s8.1-1.7,11.1-4.4s5-6.5,5.3-10.7
		c0.4-4.2-1-8-3.5-10.7C215.4,103.5,211.8,101.8,207.6,101.8L207.6,101.8z M120.5,112c-4.2,0-8.1,1.7-11.1,4.4s-5,6.5-5.4,10.7
		s1,8,3.5,10.7s6.1,4.4,10.3,4.4s8.1-1.7,11.1-4.4c3-2.7,5-6.5,5.4-10.7s-1-8-3.5-10.7C128.4,113.7,124.7,112,120.5,112L120.5,112z
		 M96.1,168.2l-4.4,0.1l0.6,4.2c0.1,0.4,0.1,0.8,0.2,1.3c1.6,8.2,9.8,22.1,23.4,32.5c13.5,10.4,32.4,17.6,55.5,12.6
		c1.5-0.3,3.1-0.7,4.6-1.1c50-14,55.2-68.9,55.2-69l0.6-6.2l-5.7,3C185.5,167.3,96.3,168.2,96.1,168.2L96.1,168.2z M223.2,154.6
		c-38,16.9-104.2,20-122.7,20.5c2.7,7.2,9.5,17.2,20,25.3c12.2,9.4,29.2,15.9,50,11.4c1.4-0.3,2.8-0.6,4.2-1
		C209.8,201,220.3,168.3,223.2,154.6L223.2,154.6z M243.8,144.4c0.7-10.3,0.3-21.3-1.1-33c-0.5-3.6-0.9-7-1.5-10.3
		c-0.5-2.7-1-5.4-1.7-8c-34-7.1-66.2-6.8-95-2.6c-38.4,5.6-70.9,18.2-94.2,29.6c1.2,27.2,5.8,40.3,19.9,63.2l-16-12.3
		c-0.1,0-19.6-15.5-32.7,1.3c-2.8,3.6-3.8,8.1-3.5,12.9c0.4,5.2,2.4,10.8,5.6,15.9c3.2,5.2,7.6,10,12.5,13.7
		c6.7,4.9,14.5,7.7,22,6.5l1.7-0.3l1.2,1.1c29.5,29.5,76.2,39.6,114.4,24.1c13.2-5.4,25.2-13.3,35.4-23.6
		C231.6,200.7,242,172.2,243.8,144.4L243.8,144.4z M170.6,18c-6.9-2.3-14.1-3.9-21.5-4.7c-10.3-1.2-21.1-0.9-32,1.1
		C85.5,20,58.2,38.2,39.5,63.1c-15.1,20.1-24.6,44.6-26,70.4c6-4,16.4-10.5,30.4-17.7l0.3-0.2c23.8-35.5,59.3-64.3,94.1-83.1
		C149.2,26.7,160.1,21.8,170.6,18L170.6,18z M57,109.5c22.9-10.4,52.7-20.9,87.1-25.9c29.4-4.3,62.1-4.6,96.7,2.5
		c5.6-10.4,25.4-51.7-6.2-66.8c-18.8-9-55.6-0.9-93.4,19.5C110.7,55.2,79.7,79.6,57,109.5z"/>
</g>
<path class="st5" d="M223.2,154.6L223.2,154.6c-38,16.9-104.2,20-122.7,20.5c2.7,7.2,9.5,17.2,20,25.3c12.2,9.4,29.2,15.9,50,11.4
	c1.4-0.3,2.8-0.6,4.2-1C209.8,201,220.3,168.3,223.2,154.6"/>
</svg>
